<?xml version="1.0" encoding="UTF-8" standalone="no"?>
<svg
   xmlns:dc="http://purl.org/dc/elements/1.1/"
   xmlns:cc="http://creativecommons.org/ns#"
   xmlns:rdf="http://www.w3.org/1999/02/22-rdf-syntax-ns#"
   xmlns:svg="http://www.w3.org/2000/svg"
   xmlns="http://www.w3.org/2000/svg"
   width="16.0px"
   height="16.0px"
   viewBox="0 0 16.0 16.0"
   version="1.1"
   id="SVGRoot">
  <defs
     id="defs20" />
  <metadata
     id="metadata23">
    <rdf:RDF>
      <cc:Work
         rdf:about="">
        <dc:format>image/svg+xml</dc:format>
        <dc:type
           rdf:resource="http://purl.org/dc/dcmitype/StillImage" />
        <dc:title></dc:title>
      </cc:Work>
    </rdf:RDF>
  </metadata>
  <g
     id="layer1">
    <path
       style="fill:none;stroke:#000000;stroke-width:0.980173;stroke-linecap:round;stroke-linejoin:round"
       id="rect45"
       width="15.019828"
       height="15.019828"
       x="0.49008626"
       y="0.49008626"
       d="M 2.4900863,0.49008626 H 13.509914 a 2,2 45 0 1 2,2.00000004 l 0,11.0198277 a 2,2 135 0 1 -2,2 l -11.0198277,0 a 2,2 45 0 1 -2.00000004,-2 V 2.4900863 A 2,2 135 0 1 2.4900863,0.49008626 Z" />
    <path
       style="fill:#000000;stroke:#000000;stroke-linecap:round;stroke-linejoin:round;fill-opacity:1"
       id="path57"
       d="m 11.602098,8.1443548 c 0,-0.046895 -4.1017972,2.3681742 -4.0611854,2.3447262 0.040612,-0.02345 -4.1017969,2.321279 -4.0611851,2.344727 0.040612,0.02345 0,-4.7363478 0,-4.6894533 0,0.046895 0.040612,-4.7128999 0,-4.6894527 -0.040612,0.023447 4.1017972,2.3681738 4.0611854,2.3447265 -0.040612,-0.023447 4.0611851,2.3916208 4.0611851,2.3447263 z"
       transform="matrix(1.093217,0,0,0.97015727,-0.24752724,0.09772815)" />
  </g>
</svg>
